<mxfile host="Electron" agent="Mozilla/5.0 (Windows NT 10.0; Win64; x64) AppleWebKit/537.36 (KHTML, like Gecko) draw.io/24.7.8 Chrome/128.0.6613.36 Electron/32.0.1 Safari/537.36" version="24.7.8">
  <diagram name="Page-1" id="rcjFr36d-QMprycCbfVz">
    <mxGraphModel dx="2643" dy="2155" grid="1" gridSize="10" guides="1" tooltips="1" connect="1" arrows="1" fold="1" page="1" pageScale="1" pageWidth="850" pageHeight="1100" math="0" shadow="0">
      <root>
        <mxCell id="0" />
        <mxCell id="1" parent="0" />
        <mxCell id="wplXm7OtqaTojmRZGg2w-236" value="" style="endArrow=oval;html=1;rounded=1;strokeWidth=13;curved=0;strokeColor=#9C9C9C;startArrow=oval;startFill=1;endFill=1;fillColor=#f8cecc;entryX=0.5;entryY=1;entryDx=0;entryDy=0;entryPerimeter=0;" edge="1" parent="1" source="wplXm7OtqaTojmRZGg2w-231" target="wplXm7OtqaTojmRZGg2w-224">
          <mxGeometry width="50" height="50" relative="1" as="geometry">
            <mxPoint x="220" y="-268" as="sourcePoint" />
            <mxPoint x="460" y="-352" as="targetPoint" />
            <Array as="points">
              <mxPoint x="720" y="-270" />
              <mxPoint x="720" y="-200" />
              <mxPoint x="720" />
            </Array>
          </mxGeometry>
        </mxCell>
        <mxCell id="wplXm7OtqaTojmRZGg2w-247" value="" style="rounded=1;whiteSpace=wrap;html=1;dashed=1;fillColor=#f5f5f5;fontColor=#333333;strokeColor=#666666;align=left;verticalAlign=bottom;" vertex="1" parent="1">
          <mxGeometry x="-427.5" y="-145" width="577.5" height="275" as="geometry" />
        </mxCell>
        <mxCell id="wplXm7OtqaTojmRZGg2w-221" value="" style="rounded=1;whiteSpace=wrap;html=1;dashed=1;fillColor=#f5f5f5;fontColor=#333333;strokeColor=#666666;align=left;verticalAlign=bottom;" vertex="1" parent="1">
          <mxGeometry x="240" y="-230" width="340" height="210" as="geometry" />
        </mxCell>
        <mxCell id="wplXm7OtqaTojmRZGg2w-194" value="" style="rounded=1;whiteSpace=wrap;html=1;dashed=1;fillColor=#f5f5f5;fontColor=#333333;strokeColor=#666666;align=left;verticalAlign=bottom;" vertex="1" parent="1">
          <mxGeometry x="245" y="200" width="420" height="260" as="geometry" />
        </mxCell>
        <mxCell id="wplXm7OtqaTojmRZGg2w-193" value="" style="rounded=1;whiteSpace=wrap;html=1;dashed=1;fillColor=#f5f5f5;fontColor=#333333;strokeColor=#666666;align=left;verticalAlign=bottom;" vertex="1" parent="1">
          <mxGeometry x="245" y="10" width="420" height="180" as="geometry" />
        </mxCell>
        <mxCell id="wplXm7OtqaTojmRZGg2w-178" value="" style="endArrow=oval;html=1;rounded=1;strokeWidth=13;curved=0;strokeColor=#00FFFF;entryX=0.5;entryY=1;entryDx=0;entryDy=0;entryPerimeter=0;startArrow=oval;startFill=1;endFill=1;exitX=0.5;exitY=1;exitDx=0;exitDy=0;exitPerimeter=0;" edge="1" parent="1" source="wplXm7OtqaTojmRZGg2w-172" target="wplXm7OtqaTojmRZGg2w-177">
          <mxGeometry width="50" height="50" relative="1" as="geometry">
            <mxPoint x="385" y="260" as="sourcePoint" />
            <mxPoint x="425" y="340" as="targetPoint" />
          </mxGeometry>
        </mxCell>
        <mxCell id="wplXm7OtqaTojmRZGg2w-108" value="" style="endArrow=oval;html=1;rounded=1;entryX=0.5;entryY=0;entryDx=0;entryDy=0;entryPerimeter=0;strokeWidth=13;curved=0;strokeColor=#0000FF;exitX=0.5;exitY=1;exitDx=0;exitDy=0;exitPerimeter=0;startArrow=oval;startFill=1;endFill=1;" edge="1" parent="1" source="wplXm7OtqaTojmRZGg2w-106" target="wplXm7OtqaTojmRZGg2w-118">
          <mxGeometry width="50" height="50" relative="1" as="geometry">
            <mxPoint x="-190" y="110" as="sourcePoint" />
            <mxPoint x="-320.4799999999998" y="233.60000000000002" as="targetPoint" />
            <Array as="points" />
          </mxGeometry>
        </mxCell>
        <mxCell id="wplXm7OtqaTojmRZGg2w-99" value="" style="endArrow=oval;html=1;rounded=1;entryX=0.5;entryY=1;entryDx=0;entryDy=0;entryPerimeter=0;strokeWidth=13;curved=0;strokeColor=#FF8000;exitX=0.078;exitY=0.987;exitDx=0;exitDy=0;exitPerimeter=0;startArrow=oval;startFill=1;endFill=1;" edge="1" parent="1" source="wplXm7OtqaTojmRZGg2w-91" target="wplXm7OtqaTojmRZGg2w-95">
          <mxGeometry width="50" height="50" relative="1" as="geometry">
            <mxPoint x="-320" y="404" as="sourcePoint" />
            <mxPoint x="-140" y="340" as="targetPoint" />
            <Array as="points">
              <mxPoint x="-320" y="480" />
              <mxPoint x="-240" y="480" />
            </Array>
          </mxGeometry>
        </mxCell>
        <mxCell id="wplXm7OtqaTojmRZGg2w-100" value="" style="endArrow=oval;html=1;rounded=1;exitX=0.5;exitY=1;exitDx=0;exitDy=0;exitPerimeter=0;entryX=0.5;entryY=1;entryDx=0;entryDy=0;entryPerimeter=0;strokeWidth=13;curved=0;strokeColor=#FF8000;startArrow=oval;startFill=1;endFill=1;" edge="1" parent="1" source="wplXm7OtqaTojmRZGg2w-95" target="wplXm7OtqaTojmRZGg2w-96">
          <mxGeometry width="50" height="50" relative="1" as="geometry">
            <mxPoint x="-220" y="460" as="sourcePoint" />
            <mxPoint x="-134" y="506" as="targetPoint" />
            <Array as="points">
              <mxPoint x="-240" y="480" />
              <mxPoint x="-150" y="480" />
            </Array>
          </mxGeometry>
        </mxCell>
        <mxCell id="wplXm7OtqaTojmRZGg2w-101" value="" style="endArrow=oval;html=1;rounded=1;exitX=0.5;exitY=1;exitDx=0;exitDy=0;exitPerimeter=0;entryX=0.5;entryY=1;entryDx=0;entryDy=0;entryPerimeter=0;strokeWidth=13;curved=0;strokeColor=#FF8000;startArrow=oval;startFill=1;endFill=1;" edge="1" parent="1" source="wplXm7OtqaTojmRZGg2w-96" target="wplXm7OtqaTojmRZGg2w-97">
          <mxGeometry width="50" height="50" relative="1" as="geometry">
            <mxPoint x="-150" y="450" as="sourcePoint" />
            <mxPoint x="-60" y="450" as="targetPoint" />
            <Array as="points">
              <mxPoint x="-150" y="480" />
              <mxPoint x="-60" y="480" />
            </Array>
          </mxGeometry>
        </mxCell>
        <mxCell id="wplXm7OtqaTojmRZGg2w-102" value="" style="endArrow=oval;html=1;rounded=1;exitX=0.5;exitY=1;exitDx=0;exitDy=0;exitPerimeter=0;entryX=0.5;entryY=1;entryDx=0;entryDy=0;entryPerimeter=0;strokeWidth=13;curved=0;strokeColor=#FF8000;startArrow=oval;startFill=1;endFill=1;" edge="1" parent="1" source="wplXm7OtqaTojmRZGg2w-97" target="wplXm7OtqaTojmRZGg2w-103">
          <mxGeometry width="50" height="50" relative="1" as="geometry">
            <mxPoint x="-60" y="450" as="sourcePoint" />
            <mxPoint x="30" y="450" as="targetPoint" />
            <Array as="points">
              <mxPoint x="-60" y="480" />
              <mxPoint x="120" y="480" />
            </Array>
          </mxGeometry>
        </mxCell>
        <mxCell id="wplXm7OtqaTojmRZGg2w-66" value="&lt;span&gt;LEGEND&lt;/span&gt;" style="rounded=1;whiteSpace=wrap;html=1;fontStyle=1;verticalAlign=bottom;" vertex="1" parent="1">
          <mxGeometry x="-688" y="-50" width="200" height="280" as="geometry" />
        </mxCell>
        <mxCell id="wplXm7OtqaTojmRZGg2w-70" value="Exporter" style="text;html=1;align=center;verticalAlign=middle;whiteSpace=wrap;rounded=0;" vertex="1" parent="1">
          <mxGeometry x="-689" y="-38" width="100" height="30" as="geometry" />
        </mxCell>
        <mxCell id="wplXm7OtqaTojmRZGg2w-84" value="" style="shape=stencil(rZVtD4IgEMc/DW8bgva+WX0PUkyWgRPL+vYhp5vmw5LYnNv9j/vdw/BENNY5KzkiOEf0iAgJsXkZswFz35lMlzypQcvEi6cg67pSN96ItO7Chcx5JerWS08IH8yZ9qFxoqQ0BKGkHnkGfgNjQppY/AIY3kWQ5g12ABYi5y+4UZb4NL6w5Hat1EOms4lL1tY+cfTuu3ryQUWjevB8PWNAIeQAsPdNCBwQkXeESyOhdwT9HxE6IIh3hEsjXwiXcQbeES5XyzfhJ0BSKM0XT9kNM1kUVl3YLjTOVMVX1k4migK250rWTbvJw8ew6RrOD6X3LfZmwybDsSr8iqzwAQ==);whiteSpace=wrap;html=1;strokeWidth=2;" vertex="1" parent="1">
          <mxGeometry x="-589" y="12" width="60" height="40" as="geometry" />
        </mxCell>
        <mxCell id="wplXm7OtqaTojmRZGg2w-85" value="" style="shape=stencil(rZVtD4IgEMc/DW8bgvW+WX0PUkyWgRN7+vYhpytTW9Ftzu3+B797EA/CE1uIShJGC8I3hLGYupczr2CuOlPYSqYNaLm6yQxk29TmKK8qa7rtSheyVk3r5VtC125N+/AkNVo7gjLaDjwvfgcTSru99AYwulhCmDvYEViE7d7gTpnj82Qv0uOhNmedTQauRJv7yNG7T+YinxkxOkiITic0JJRKvxBibEIUgFiiI0IKWaEj+P/tREDEAQiGjggpBJsQ8kkjdETI8WboiK8IaWmsnF3lB91oXnl1ZsjxJDe1/DD9clWWMMQ/RP1pRCL8Tz+dw+mm9L7Z2vy2UXO8CjeiFx4=);whiteSpace=wrap;html=1;strokeWidth=2;" vertex="1" parent="1">
          <mxGeometry x="-589" y="-43" width="60" height="40" as="geometry" />
        </mxCell>
        <mxCell id="wplXm7OtqaTojmRZGg2w-86" value="" style="shape=stencil(rZRhD4IgEIZ/DV8bQfm9Wf0PUkwmgRNL+/chp5umuHJsju3eF547boeIxiZnJUcE54ieESEU28WGDYRRHzJT8qQGLRMtT0E2daUL3oi07o8LlfNK1J1LLwif7J7uo3GilbIEoZWZOCPfwphQ9ixuAYZ3R0jzhngPESLXL7hVfHwa31hS3Cv9VOli4pJ1tc+MwX7oFx9VNKkHL9czBUihRoAoNGEL4hAcQTcgSHDElouEJvwESKQ23LvLzfNsLJ3qmWUaZ7riK0OeCSnhra5k/eslBJihv3q/3JTB897NHZs1x6nw43PCBw==);whiteSpace=wrap;html=1;strokeWidth=2;" vertex="1" parent="1">
          <mxGeometry x="-599" y="62" width="80" height="40" as="geometry" />
        </mxCell>
        <mxCell id="wplXm7OtqaTojmRZGg2w-87" value="" style="shape=stencil(rZZtb4QgDMc/DW8XpOru7eK27+EUJzkHRt3u9u2H9C6R+bBJTYymLfz5UUojg6yv81YywWsGz0yImNuXNS9onm5m3reyGNBXqass0d0PnTnLiyqH23Sla9mpYYzCC+NPdsz4QFYYra2CMrr3IpO4FcuVtnP5FcX4Q4LLfKMdocXE6y9x61nTh+wtL87vnfnU5eLCbT6yzwL38If5khMin4cvA/kKjdIThRNdIvUlIEAiOVwiDpCAwyVCNiLoEiFnWjSml6ujXE3PStN5V+oZssp0cqPQK9U0eF83Vt11Gw6ool3nt5yUe+zPvf0rATigMI3prAO/Do0JAKgqgG3CXQmMeEDh+AmM/BZJr/8QCEGGADoEkCFiOkRMhkjoEAkZIqVDpGSIxz0Qgb3BTZs1TufFHyPn+AE=);whiteSpace=wrap;html=1;strokeWidth=2;" vertex="1" parent="1">
          <mxGeometry x="-599" y="112" width="80" height="40" as="geometry" />
        </mxCell>
        <mxCell id="wplXm7OtqaTojmRZGg2w-88" value="Importer" style="text;html=1;align=center;verticalAlign=middle;whiteSpace=wrap;rounded=0;" vertex="1" parent="1">
          <mxGeometry x="-689" y="12" width="100" height="30" as="geometry" />
        </mxCell>
        <mxCell id="wplXm7OtqaTojmRZGg2w-89" value="Interface" style="text;html=1;align=center;verticalAlign=middle;whiteSpace=wrap;rounded=0;" vertex="1" parent="1">
          <mxGeometry x="-689" y="62" width="100" height="30" as="geometry" />
        </mxCell>
        <mxCell id="wplXm7OtqaTojmRZGg2w-90" value="Storage Bus" style="text;html=1;align=center;verticalAlign=middle;whiteSpace=wrap;rounded=0;" vertex="1" parent="1">
          <mxGeometry x="-689" y="117" width="100" height="30" as="geometry" />
        </mxCell>
        <mxCell id="wplXm7OtqaTojmRZGg2w-93" value="ME P2P" style="text;html=1;align=center;verticalAlign=middle;whiteSpace=wrap;rounded=0;" vertex="1" parent="1">
          <mxGeometry x="-689" y="167" width="100" height="30" as="geometry" />
        </mxCell>
        <mxCell id="wplXm7OtqaTojmRZGg2w-95" value="1" style="shape=stencil(rZThDoIgEMefhq8NIf3erN6DFJNp4MTS3j7kdGlqm4zNsd3/uN/dgQeisc5ZxRHBOaJnRAjFZjFmC2Y0mExXPGlAy0THU5B1U6uCtyJthnAhc16LpvfSC8Ins6f/aJwoKQ1BKKlnnonfwJiQJhZ3AMOHENK8wQ7AQuT6AzfKFp/GN5YU91o9ZbqauGJ97QvH6H6oF/9WFOBZQXi9oDmhFHJCCH0Twv2EyDfBpY2jdwR1QBDvCJdGfBMcbjRwICSl0nxzlx3LxXRZdWMkaZypmv+Z1UyUJTw5f7LuGmgPf+Gu21s/lNG32ZsNWxyOVeH9tsIH);whiteSpace=wrap;html=1;strokeWidth=2;" vertex="1" parent="1">
          <mxGeometry x="-280" y="410" width="80" height="40" as="geometry" />
        </mxCell>
        <mxCell id="wplXm7OtqaTojmRZGg2w-96" value="2" style="shape=stencil(rZThDoIgEMefhq8NIf3erN6DFJNp4MTS3j7kdGlqm4zNsd3/uN/dgQeisc5ZxRHBOaJnRAjFZjFmC2Y0mExXPGlAy0THU5B1U6uCtyJthnAhc16LpvfSC8Ins6f/aJwoKQ1BKKlnnonfwJiQJhZ3AMOHENK8wQ7AQuT6AzfKFp/GN5YU91o9ZbqauGJ97QvH6H6oF/9WFOBZQXi9oDmhFHJCCH0Twv2EyDfBpY2jdwR1QBDvCJdGfBMcbjRwICSl0nxzlx3LxXRZdWMkaZypmv+Z1UyUJTw5f7LuGmgPf+Gu21s/lNG32ZsNWxyOVeH9tsIH);whiteSpace=wrap;html=1;strokeWidth=2;" vertex="1" parent="1">
          <mxGeometry x="-190" y="410" width="80" height="40" as="geometry" />
        </mxCell>
        <mxCell id="wplXm7OtqaTojmRZGg2w-97" value="3" style="shape=stencil(rZThDoIgEMefhq8NIf3erN6DFJNp4MTS3j7kdGlqm4zNsd3/uN/dgQeisc5ZxRHBOaJnRAjFZjFmC2Y0mExXPGlAy0THU5B1U6uCtyJthnAhc16LpvfSC8Ins6f/aJwoKQ1BKKlnnonfwJiQJhZ3AMOHENK8wQ7AQuT6AzfKFp/GN5YU91o9ZbqauGJ97QvH6H6oF/9WFOBZQXi9oDmhFHJCCH0Twv2EyDfBpY2jdwR1QBDvCJdGfBMcbjRwICSl0nxzlx3LxXRZdWMkaZypmv+Z1UyUJTw5f7LuGmgPf+Gu21s/lNG32ZsNWxyOVeH9tsIH);whiteSpace=wrap;html=1;strokeWidth=2;" vertex="1" parent="1">
          <mxGeometry x="-100" y="410" width="80" height="40" as="geometry" />
        </mxCell>
        <mxCell id="wplXm7OtqaTojmRZGg2w-103" value="9999, etc..." style="shape=stencil(rZThDoIgEMefhq8NIf3erN6DFJNp4MTS3j7kdGlqm4zNsd3/uN/dgQeisc5ZxRHBOaJnRAjFZjFmC2Y0mExXPGlAy0THU5B1U6uCtyJthnAhc16LpvfSC8Ins6f/aJwoKQ1BKKlnnonfwJiQJhZ3AMOHENK8wQ7AQuT6AzfKFp/GN5YU91o9ZbqauGJ97QvH6H6oF/9WFOBZQXi9oDmhFHJCCH0Twv2EyDfBpY2jdwR1QBDvCJdGfBMcbjRwICSl0nxzlx3LxXRZdWMkaZypmv+Z1UyUJTw5f7LuGmgPf+Gu21s/lNG32ZsNWxyOVeH9tsIH);whiteSpace=wrap;html=1;strokeWidth=2;" vertex="1" parent="1">
          <mxGeometry x="80" y="410" width="80" height="40" as="geometry" />
        </mxCell>
        <mxCell id="wplXm7OtqaTojmRZGg2w-105" value="" style="endArrow=oval;html=1;rounded=1;strokeWidth=13;curved=0;strokeColor=#4C0099;exitX=0.5;exitY=1;exitDx=0;exitDy=0;exitPerimeter=0;startArrow=oval;startFill=1;endFill=1;entryX=0.173;entryY=0.02;entryDx=0;entryDy=0;entryPerimeter=0;" edge="1" parent="1" source="wplXm7OtqaTojmRZGg2w-118" target="wplXm7OtqaTojmRZGg2w-91">
          <mxGeometry width="50" height="50" relative="1" as="geometry">
            <mxPoint x="-320" y="275" as="sourcePoint" />
            <mxPoint x="-260" y="231" as="targetPoint" />
          </mxGeometry>
        </mxCell>
        <mxCell id="wplXm7OtqaTojmRZGg2w-106" value="" style="shape=stencil(rZZtb4QgDMc/DW8XpOru7eK27+EUJzkHRt3u9u2H9C6R+bBJTYymLfz5UUojg6yv81YywWsGz0yImNuXNS9onm5m3reyGNBXqass0d0PnTnLiyqH23Sla9mpYYzCC+NPdsz4QFYYra2CMrr3IpO4FcuVtnP5FcX4Q4LLfKMdocXE6y9x61nTh+wtL87vnfnU5eLCbT6yzwL38If5khMin4cvA/kKjdIThRNdIvUlIEAiOVwiDpCAwyVCNiLoEiFnWjSml6ujXE3PStN5V+oZssp0cqPQK9U0eF83Vt11Gw6ool3nt5yUe+zPvf0rATigMI3prAO/Do0JAKgqgG3CXQmMeEDh+AmM/BZJr/8QCEGGADoEkCFiOkRMhkjoEAkZIqVDpGSIxz0Qgb3BTZs1TufFHyPn+AE=);whiteSpace=wrap;html=1;strokeWidth=2;rotation=0;" vertex="1" parent="1">
          <mxGeometry x="-310" y="140" width="80" height="40" as="geometry" />
        </mxCell>
        <mxCell id="wplXm7OtqaTojmRZGg2w-109" value="" style="endArrow=oval;html=1;rounded=1;strokeWidth=13;curved=0;strokeColor=#0000FF;exitX=0.5;exitY=0;exitDx=0;exitDy=0;exitPerimeter=0;startArrow=oval;startFill=1;endFill=1;" edge="1" parent="1" source="wplXm7OtqaTojmRZGg2w-116" target="wplXm7OtqaTojmRZGg2w-110">
          <mxGeometry width="50" height="50" relative="1" as="geometry">
            <mxPoint x="-320" y="230" as="sourcePoint" />
            <mxPoint x="-480" y="280" as="targetPoint" />
          </mxGeometry>
        </mxCell>
        <mxCell id="wplXm7OtqaTojmRZGg2w-110" value="Some Factory&lt;div&gt;&lt;i&gt;(many channels)&lt;/i&gt;&lt;/div&gt;" style="rounded=1;whiteSpace=wrap;html=1;" vertex="1" parent="1">
          <mxGeometry x="-200" y="140" width="120" height="40" as="geometry" />
        </mxCell>
        <mxCell id="wplXm7OtqaTojmRZGg2w-112" value="" style="endArrow=oval;html=1;rounded=1;strokeWidth=13;curved=0;strokeColor=#00FF00;entryX=0.5;entryY=1;entryDx=0;entryDy=0;entryPerimeter=0;startArrow=oval;startFill=1;endFill=1;exitX=0.5;exitY=1;exitDx=0;exitDy=0;exitPerimeter=0;" edge="1" parent="1" source="wplXm7OtqaTojmRZGg2w-131" target="wplXm7OtqaTojmRZGg2w-111">
          <mxGeometry width="50" height="50" relative="1" as="geometry">
            <mxPoint x="30" y="180" as="sourcePoint" />
            <mxPoint x="20" y="250" as="targetPoint" />
          </mxGeometry>
        </mxCell>
        <mxCell id="wplXm7OtqaTojmRZGg2w-114" value="" style="endArrow=oval;html=1;rounded=1;strokeWidth=13;curved=0;strokeColor=#4C0099;exitX=0.5;exitY=1;exitDx=0;exitDy=0;exitPerimeter=0;startArrow=oval;startFill=1;endFill=1;entryX=0.427;entryY=-0.002;entryDx=0;entryDy=0;entryPerimeter=0;" edge="1" parent="1" source="wplXm7OtqaTojmRZGg2w-116" target="wplXm7OtqaTojmRZGg2w-91">
          <mxGeometry width="50" height="50" relative="1" as="geometry">
            <mxPoint x="-420" y="260" as="sourcePoint" />
            <mxPoint x="-312" y="330" as="targetPoint" />
          </mxGeometry>
        </mxCell>
        <mxCell id="wplXm7OtqaTojmRZGg2w-116" value="2" style="shape=stencil(rZXRDoIgFIafhtuGnOy+Ub0HKSbLwAmlvX0IumpqS8bm3M7/w3c44EEEVJes5ojgEsEBEQLYvmzY+nA3hEzXPDNeK0THcy9r06grb0VuhulClrwRpnfhiPDejukfoJmS0hKEkvrL+fAtjAlp5+LOw/Am9WmeQ+wjRE7BiGQeAdQqS0sEembZ9dKou8xnE9esL39ijPZNPfh7RQn+v6aRUAn5QUhjE9L1hF1sQkgZ2+gICECQ6IiQQmITAk40CSBkldJ8cZRry0l3OXWhJYEWquE/erUQVeVvrR9ZVzV0hK9w1enNb8roLdbmpk02x6n+F+CEFw==);whiteSpace=wrap;html=1;strokeWidth=2;rotation=0;" vertex="1" parent="1">
          <mxGeometry x="-180" y="215" width="80" height="40" as="geometry" />
        </mxCell>
        <mxCell id="wplXm7OtqaTojmRZGg2w-117" value="" style="shape=stencil(rZXRDoIgFIafhtuGnOy+Ub0HKSbLwAmlvX0IumpqS8bm3M7/w3c44EEEVJes5ojgEsEBEQLYvmzY+nA3hEzXPDNeK0THcy9r06grb0VuhulClrwRpnfhiPDejukfoJmS0hKEkvrL+fAtjAlp5+LOw/Am9WmeQ+wjRE7BiGQeAdQqS0sEembZ9dKou8xnE9esL39ijPZNPfh7RQn+v6aRUAn5QUhjE9L1hF1sQkgZ2+gICECQ6IiQQmITAk40CSBkldJ8cZRry0l3OXWhJYEWquE/erUQVeVvrR9ZVzV0hK9w1enNb8roLdbmpk02x6n+F+CEFw==);whiteSpace=wrap;html=1;strokeWidth=2;" vertex="1" parent="1">
          <mxGeometry x="-599" y="162" width="80" height="40" as="geometry" />
        </mxCell>
        <mxCell id="wplXm7OtqaTojmRZGg2w-118" value="1" style="shape=stencil(rZXRDoIgFIafhtuGnOy+Ub0HKSbLwAmlvX0IumpqS8bm3M7/w3c44EEEVJes5ojgEsEBEQLYvmzY+nA3hEzXPDNeK0THcy9r06grb0VuhulClrwRpnfhiPDejukfoJmS0hKEkvrL+fAtjAlp5+LOw/Am9WmeQ+wjRE7BiGQeAdQqS0sEembZ9dKou8xnE9esL39ijPZNPfh7RQn+v6aRUAn5QUhjE9L1hF1sQkgZ2+gICECQ6IiQQmITAk40CSBkldJ8cZRry0l3OXWhJYEWquE/erUQVeVvrR9ZVzV0hK9w1enNb8roLdbmpk02x6n+F+CEFw==);whiteSpace=wrap;html=1;strokeWidth=2;rotation=0;" vertex="1" parent="1">
          <mxGeometry x="-310" y="215" width="80" height="40" as="geometry" />
        </mxCell>
        <mxCell id="wplXm7OtqaTojmRZGg2w-119" value="Main Storage&lt;br&gt;Drawers" style="rounded=1;whiteSpace=wrap;html=1;fillColor=#fff2cc;strokeColor=#d6b656;" vertex="1" parent="1">
          <mxGeometry x="-310" y="-130" width="80" height="30" as="geometry" />
        </mxCell>
        <mxCell id="wplXm7OtqaTojmRZGg2w-128" value="" style="endArrow=oval;html=1;rounded=1;strokeWidth=13;curved=0;strokeColor=#b85450;entryX=0.5;entryY=1;entryDx=0;entryDy=0;entryPerimeter=0;startArrow=oval;startFill=1;endFill=1;fillColor=#f8cecc;exitX=0.5;exitY=1;exitDx=0;exitDy=0;exitPerimeter=0;" edge="1" parent="1" source="wplXm7OtqaTojmRZGg2w-130" target="wplXm7OtqaTojmRZGg2w-121">
          <mxGeometry width="50" height="50" relative="1" as="geometry">
            <mxPoint x="-240" as="sourcePoint" />
            <mxPoint x="-180" y="19.289999999999992" as="targetPoint" />
          </mxGeometry>
        </mxCell>
        <mxCell id="wplXm7OtqaTojmRZGg2w-129" value="" style="endArrow=oval;html=1;rounded=1;strokeWidth=13;curved=0;strokeColor=#b85450;entryX=1;entryY=0.5;entryDx=0;entryDy=0;startArrow=oval;startFill=1;endFill=1;fillColor=#f8cecc;exitX=0.5;exitY=1;exitDx=0;exitDy=0;exitPerimeter=0;" edge="1" parent="1" source="wplXm7OtqaTojmRZGg2w-130" target="wplXm7OtqaTojmRZGg2w-134">
          <mxGeometry width="50" height="50" relative="1" as="geometry">
            <mxPoint x="80" y="10" as="sourcePoint" />
            <mxPoint x="-70" y="10" as="targetPoint" />
          </mxGeometry>
        </mxCell>
        <mxCell id="wplXm7OtqaTojmRZGg2w-132" value="" style="endArrow=oval;html=1;rounded=1;strokeWidth=13;curved=0;strokeColor=#00FF00;entryX=0.5;entryY=1;entryDx=0;entryDy=0;entryPerimeter=0;startArrow=oval;startFill=1;endFill=1;" edge="1" parent="1" source="wplXm7OtqaTojmRZGg2w-120" target="wplXm7OtqaTojmRZGg2w-111">
          <mxGeometry width="50" height="50" relative="1" as="geometry">
            <mxPoint x="-90" y="40" as="sourcePoint" />
            <mxPoint x="150" y="240" as="targetPoint" />
            <Array as="points">
              <mxPoint x="-150" y="90" />
            </Array>
          </mxGeometry>
        </mxCell>
        <mxCell id="wplXm7OtqaTojmRZGg2w-134" value="Terminal" style="shape=process;whiteSpace=wrap;html=1;backgroundOutline=1;" vertex="1" parent="1">
          <mxGeometry x="-390" y="-60" width="60" height="40" as="geometry" />
        </mxCell>
        <mxCell id="wplXm7OtqaTojmRZGg2w-196" value="" style="rounded=0;orthogonalLoop=1;jettySize=auto;html=1;dashed=1;" edge="1" parent="1" source="wplXm7OtqaTojmRZGg2w-135" target="wplXm7OtqaTojmRZGg2w-134">
          <mxGeometry relative="1" as="geometry" />
        </mxCell>
        <mxCell id="wplXm7OtqaTojmRZGg2w-135" value="&lt;i style=&quot;font-size: 10px;&quot;&gt;Easily See what&#39;s in the Drawers&lt;/i&gt;" style="rounded=1;whiteSpace=wrap;html=1;dashed=1;fontSize=10;" vertex="1" parent="1">
          <mxGeometry x="-405" width="90" height="30" as="geometry" />
        </mxCell>
        <mxCell id="wplXm7OtqaTojmRZGg2w-137" value="" style="endArrow=oval;html=1;rounded=1;strokeWidth=13;curved=0;strokeColor=#4C0099;startArrow=oval;startFill=1;endFill=1;entryX=0.051;entryY=0.021;entryDx=0;entryDy=0;entryPerimeter=0;" edge="1" parent="1" source="wplXm7OtqaTojmRZGg2w-138" target="wplXm7OtqaTojmRZGg2w-91">
          <mxGeometry width="50" height="50" relative="1" as="geometry">
            <mxPoint x="-400" y="360" as="sourcePoint" />
            <mxPoint x="-372" y="340" as="targetPoint" />
          </mxGeometry>
        </mxCell>
        <mxCell id="wplXm7OtqaTojmRZGg2w-138" value="Wireless Transmitter" style="rounded=1;whiteSpace=wrap;html=1;" vertex="1" parent="1">
          <mxGeometry x="-450" y="255" width="120" height="40" as="geometry" />
        </mxCell>
        <mxCell id="wplXm7OtqaTojmRZGg2w-121" value="" style="shape=stencil(rZZtb4QgDMc/DW8XpOru7eK27+EUJzkHRt3u9u2H9C6R+bBJTYymLfz5UUojg6yv81YywWsGz0yImNuXNS9onm5m3reyGNBXqass0d0PnTnLiyqH23Sla9mpYYzCC+NPdsz4QFYYra2CMrr3IpO4FcuVtnP5FcX4Q4LLfKMdocXE6y9x61nTh+wtL87vnfnU5eLCbT6yzwL38If5khMin4cvA/kKjdIThRNdIvUlIEAiOVwiDpCAwyVCNiLoEiFnWjSml6ujXE3PStN5V+oZssp0cqPQK9U0eF83Vt11Gw6ool3nt5yUe+zPvf0rATigMI3prAO/Do0JAKgqgG3CXQmMeEDh+AmM/BZJr/8QCEGGADoEkCFiOkRMhkjoEAkZIqVDpGSIxz0Qgb3BTZs1TufFHyPn+AE=);whiteSpace=wrap;html=1;strokeWidth=2;rotation=0;" vertex="1" parent="1">
          <mxGeometry x="-310" y="-90" width="80" height="40" as="geometry" />
        </mxCell>
        <mxCell id="wplXm7OtqaTojmRZGg2w-131" value="Priority 1" style="shape=stencil(rZZtb4QgDMc/DW8XpOru7eK27+EUJzkHRt3u9u2H9C6R+bBJTYymLfz5UUojg6yv81YywWsGz0yImNuXNS9onm5m3reyGNBXqass0d0PnTnLiyqH23Sla9mpYYzCC+NPdsz4QFYYra2CMrr3IpO4FcuVtnP5FcX4Q4LLfKMdocXE6y9x61nTh+wtL87vnfnU5eLCbT6yzwL38If5khMin4cvA/kKjdIThRNdIvUlIEAiOVwiDpCAwyVCNiLoEiFnWjSml6ujXE3PStN5V+oZssp0cqPQK9U0eF83Vt11Gw6ool3nt5yUe+zPvf0rATigMI3prAO/Do0JAKgqgG3CXQmMeEDh+AmM/BZJr/8QCEGGADoEkCFiOkRMhkjoEAkZIqVDpGSIxz0Qgb3BTZs1TufFHyPn+AE=);whiteSpace=wrap;html=1;strokeWidth=2;rotation=0;" vertex="1" parent="1">
          <mxGeometry x="-310" y="30" width="80" height="40" as="geometry" />
        </mxCell>
        <mxCell id="wplXm7OtqaTojmRZGg2w-120" value="ME Drives&lt;div&gt;Priority 0&lt;br&gt;&lt;i&gt;(Unpartitioned&lt;br&gt;Item Drives)&lt;/i&gt;&lt;/div&gt;" style="rounded=1;whiteSpace=wrap;html=1;" vertex="1" parent="1">
          <mxGeometry x="-200" y="10" width="100" height="60" as="geometry" />
        </mxCell>
        <mxCell id="wplXm7OtqaTojmRZGg2w-141" value="" style="endArrow=oval;html=1;rounded=1;strokeWidth=13;curved=0;strokeColor=#00FF00;entryX=0.5;entryY=1;entryDx=0;entryDy=0;entryPerimeter=0;startArrow=oval;startFill=1;endFill=1;" edge="1" parent="1" source="wplXm7OtqaTojmRZGg2w-142" target="wplXm7OtqaTojmRZGg2w-111">
          <mxGeometry width="50" height="50" relative="1" as="geometry">
            <mxPoint x="50" y="30" as="sourcePoint" />
            <mxPoint x="-140" y="105" as="targetPoint" />
            <Array as="points">
              <mxPoint x="-30" y="90" />
            </Array>
          </mxGeometry>
        </mxCell>
        <mxCell id="wplXm7OtqaTojmRZGg2w-142" value="ME Drives&lt;div&gt;Priority 0&lt;br&gt;&lt;i&gt;(Partitioned&lt;br&gt;Fluid, Gas, Other Drives)&lt;/i&gt;&lt;/div&gt;" style="rounded=1;whiteSpace=wrap;html=1;" vertex="1" parent="1">
          <mxGeometry x="-80" y="-20" width="100" height="90" as="geometry" />
        </mxCell>
        <mxCell id="wplXm7OtqaTojmRZGg2w-143" value="Dimensional Chest 1" style="rounded=1;whiteSpace=wrap;html=1;" vertex="1" parent="1">
          <mxGeometry x="255" y="40" width="80" height="40" as="geometry" />
        </mxCell>
        <mxCell id="wplXm7OtqaTojmRZGg2w-149" value="Sophisticated Backpack&lt;br&gt;&lt;i&gt;(max stack upgrades)&lt;/i&gt;" style="rounded=1;whiteSpace=wrap;html=1;" vertex="1" parent="1">
          <mxGeometry x="455" y="40" width="150" height="40" as="geometry" />
        </mxCell>
        <mxCell id="wplXm7OtqaTojmRZGg2w-154" value="Entangler&lt;br&gt;&lt;i&gt;(to Main Storage Drawers)&lt;/i&gt;" style="rounded=1;whiteSpace=wrap;html=1;fillColor=#fff2cc;strokeColor=#d6b656;" vertex="1" parent="1">
          <mxGeometry x="455" y="120" width="150" height="40" as="geometry" />
        </mxCell>
        <mxCell id="wplXm7OtqaTojmRZGg2w-159" value="" style="endArrow=oval;html=1;rounded=1;strokeWidth=13;curved=0;strokeColor=#00FFFF;entryX=0.5;entryY=1;entryDx=0;entryDy=0;entryPerimeter=0;startArrow=oval;startFill=1;endFill=1;exitX=0.5;exitY=1;exitDx=0;exitDy=0;exitPerimeter=0;" edge="1" parent="1" source="wplXm7OtqaTojmRZGg2w-158" target="wplXm7OtqaTojmRZGg2w-156">
          <mxGeometry width="50" height="50" relative="1" as="geometry">
            <mxPoint x="632" y="260" as="sourcePoint" />
            <mxPoint x="365" y="320" as="targetPoint" />
          </mxGeometry>
        </mxCell>
        <mxCell id="wplXm7OtqaTojmRZGg2w-160" value="" style="endArrow=oval;html=1;rounded=1;strokeWidth=13;curved=0;strokeColor=#00FFFF;entryX=0.5;entryY=1;entryDx=0;entryDy=0;entryPerimeter=0;startArrow=oval;startFill=1;endFill=1;exitX=0.5;exitY=1;exitDx=0;exitDy=0;exitPerimeter=0;" edge="1" parent="1" source="wplXm7OtqaTojmRZGg2w-158" target="wplXm7OtqaTojmRZGg2w-157">
          <mxGeometry width="50" height="50" relative="1" as="geometry">
            <mxPoint x="465" y="130" as="sourcePoint" />
            <mxPoint x="445" y="210" as="targetPoint" />
          </mxGeometry>
        </mxCell>
        <mxCell id="wplXm7OtqaTojmRZGg2w-163" value="" style="endArrow=oval;html=1;rounded=1;strokeWidth=13;curved=0;strokeColor=#FFFF66;entryX=0.5;entryY=1;entryDx=0;entryDy=0;entryPerimeter=0;startArrow=oval;startFill=1;endFill=1;exitX=0.5;exitY=1;exitDx=0;exitDy=0;exitPerimeter=0;" edge="1" parent="1" source="wplXm7OtqaTojmRZGg2w-162" target="wplXm7OtqaTojmRZGg2w-161">
          <mxGeometry width="50" height="50" relative="1" as="geometry">
            <mxPoint x="400" y="205" as="sourcePoint" />
            <mxPoint x="350" y="225" as="targetPoint" />
          </mxGeometry>
        </mxCell>
        <mxCell id="wplXm7OtqaTojmRZGg2w-156" value="Priority 1" style="shape=stencil(rZZtb4QgDMc/DW8XpOru7eK27+EUJzkHRt3u9u2H9C6R+bBJTYymLfz5UUojg6yv81YywWsGz0yImNuXNS9onm5m3reyGNBXqass0d0PnTnLiyqH23Sla9mpYYzCC+NPdsz4QFYYra2CMrr3IpO4FcuVtnP5FcX4Q4LLfKMdocXE6y9x61nTh+wtL87vnfnU5eLCbT6yzwL38If5khMin4cvA/kKjdIThRNdIvUlIEAiOVwiDpCAwyVCNiLoEiFnWjSml6ujXE3PStN5V+oZssp0cqPQK9U0eF83Vt11Gw6ool3nt5yUe+zPvf0rATigMI3prAO/Do0JAKgqgG3CXQmMeEDh+AmM/BZJr/8QCEGGADoEkCFiOkRMhkjoEAkZIqVDpGSIxz0Qgb3BTZs1TufFHyPn+AE=);whiteSpace=wrap;html=1;strokeWidth=2;rotation=90;" vertex="1" parent="1">
          <mxGeometry x="395" y="120" width="80" height="40" as="geometry" />
        </mxCell>
        <mxCell id="wplXm7OtqaTojmRZGg2w-157" value="Priority 0" style="shape=stencil(rZZtb4QgDMc/DW8XpOru7eK27+EUJzkHRt3u9u2H9C6R+bBJTYymLfz5UUojg6yv81YywWsGz0yImNuXNS9onm5m3reyGNBXqass0d0PnTnLiyqH23Sla9mpYYzCC+NPdsz4QFYYra2CMrr3IpO4FcuVtnP5FcX4Q4LLfKMdocXE6y9x61nTh+wtL87vnfnU5eLCbT6yzwL38If5khMin4cvA/kKjdIThRNdIvUlIEAiOVwiDpCAwyVCNiLoEiFnWjSml6ujXE3PStN5V+oZssp0cqPQK9U0eF83Vt11Gw6ool3nt5yUe+zPvf0rATigMI3prAO/Do0JAKgqgG3CXQmMeEDh+AmM/BZJr/8QCEGGADoEkCFiOkRMhkjoEAkZIqVDpGSIxz0Qgb3BTZs1TufFHyPn+AE=);whiteSpace=wrap;html=1;strokeWidth=2;rotation=90;" vertex="1" parent="1">
          <mxGeometry x="395" y="40" width="80" height="40" as="geometry" />
        </mxCell>
        <mxCell id="wplXm7OtqaTojmRZGg2w-158" value="" style="shape=stencil(rZVtD4IgEMc/DW8bgva+WX0PUkyWgRPL+vYhp5vmw5LYnNv9j/vdw/BENNY5KzkiOEf0iAgJsXkZswFz35lMlzypQcvEi6cg67pSN96ItO7Chcx5JerWS08IH8yZ9qFxoqQ0BKGkHnkGfgNjQppY/AIY3kWQ5g12ABYi5y+4UZb4NL6w5Hat1EOms4lL1tY+cfTuu3ryQUWjevB8PWNAIeQAsPdNCBwQkXeESyOhdwT9HxE6IIh3hEsjXwiXcQbeES5XyzfhJ0BSKM0XT9kNM1kUVl3YLjTOVMVX1k4migK250rWTbvJw8ew6RrOD6X3LfZmwybDsSr8iqzwAQ==);whiteSpace=wrap;html=1;strokeWidth=2;rotation=-90;" vertex="1" parent="1">
          <mxGeometry x="325" y="40" width="60" height="40" as="geometry" />
        </mxCell>
        <mxCell id="wplXm7OtqaTojmRZGg2w-161" value="" style="shape=stencil(rZVtD4IgEMc/DW8bgva+WX0PUkyWgRPL+vYhp5vmw5LYnNv9j/vdw/BENNY5KzkiOEf0iAgJsXkZswFz35lMlzypQcvEi6cg67pSN96ItO7Chcx5JerWS08IH8yZ9qFxoqQ0BKGkHnkGfgNjQppY/AIY3kWQ5g12ABYi5y+4UZb4NL6w5Hat1EOms4lL1tY+cfTuu3ryQUWjevB8PWNAIeQAsPdNCBwQkXeESyOhdwT9HxE6IIh3hEsjXwiXcQbeES5XyzfhJ0BSKM0XT9kNM1kUVl3YLjTOVMVX1k4migK250rWTbvJw8ew6RrOD6X3LfZmwybDsSr8iqzwAQ==);whiteSpace=wrap;html=1;strokeWidth=2;rotation=-90;" vertex="1" parent="1">
          <mxGeometry x="595" y="40" width="60" height="40" as="geometry" />
        </mxCell>
        <mxCell id="wplXm7OtqaTojmRZGg2w-164" value="Dimensional Chest 2" style="rounded=1;whiteSpace=wrap;html=1;" vertex="1" parent="1">
          <mxGeometry x="255" y="230" width="80" height="40" as="geometry" />
        </mxCell>
        <mxCell id="wplXm7OtqaTojmRZGg2w-165" value="Sophisticated Backpack&lt;br&gt;&lt;i&gt;(max stack upgrades)&lt;br&gt;(voids by Mod, Tag, &amp;amp; item)&lt;/i&gt;" style="rounded=1;whiteSpace=wrap;html=1;" vertex="1" parent="1">
          <mxGeometry x="455" y="220" width="150" height="60" as="geometry" />
        </mxCell>
        <mxCell id="wplXm7OtqaTojmRZGg2w-166" value="Entangler&lt;br&gt;&lt;i&gt;(to Main Storage Drawers)&lt;/i&gt;" style="rounded=1;whiteSpace=wrap;html=1;fillColor=#fff2cc;strokeColor=#d6b656;" vertex="1" parent="1">
          <mxGeometry x="455" y="310" width="150" height="40" as="geometry" />
        </mxCell>
        <mxCell id="wplXm7OtqaTojmRZGg2w-167" value="" style="endArrow=oval;html=1;rounded=1;strokeWidth=13;curved=0;strokeColor=#00FFFF;entryX=0.5;entryY=1;entryDx=0;entryDy=0;entryPerimeter=0;startArrow=oval;startFill=1;endFill=1;exitX=0.5;exitY=1;exitDx=0;exitDy=0;exitPerimeter=0;" edge="1" parent="1" source="wplXm7OtqaTojmRZGg2w-172" target="wplXm7OtqaTojmRZGg2w-170">
          <mxGeometry width="50" height="50" relative="1" as="geometry">
            <mxPoint x="632" y="450" as="sourcePoint" />
            <mxPoint x="365" y="510" as="targetPoint" />
          </mxGeometry>
        </mxCell>
        <mxCell id="wplXm7OtqaTojmRZGg2w-168" value="" style="endArrow=oval;html=1;rounded=1;strokeWidth=13;curved=0;strokeColor=#00FFFF;entryX=0.5;entryY=1;entryDx=0;entryDy=0;entryPerimeter=0;startArrow=oval;startFill=1;endFill=1;exitX=0.5;exitY=1;exitDx=0;exitDy=0;exitPerimeter=0;" edge="1" parent="1" source="wplXm7OtqaTojmRZGg2w-172" target="wplXm7OtqaTojmRZGg2w-171">
          <mxGeometry width="50" height="50" relative="1" as="geometry">
            <mxPoint x="465" y="320" as="sourcePoint" />
            <mxPoint x="445" y="400" as="targetPoint" />
          </mxGeometry>
        </mxCell>
        <mxCell id="wplXm7OtqaTojmRZGg2w-169" value="" style="endArrow=oval;html=1;rounded=1;strokeWidth=13;curved=0;strokeColor=#FFFF66;entryX=0.5;entryY=1;entryDx=0;entryDy=0;entryPerimeter=0;startArrow=oval;startFill=1;endFill=1;exitX=0.5;exitY=1;exitDx=0;exitDy=0;exitPerimeter=0;" edge="1" parent="1" source="wplXm7OtqaTojmRZGg2w-174" target="wplXm7OtqaTojmRZGg2w-173">
          <mxGeometry width="50" height="50" relative="1" as="geometry">
            <mxPoint x="400" y="395" as="sourcePoint" />
            <mxPoint x="350" y="415" as="targetPoint" />
          </mxGeometry>
        </mxCell>
        <mxCell id="wplXm7OtqaTojmRZGg2w-170" value="Priority 1" style="shape=stencil(rZZtb4QgDMc/DW8XpOru7eK27+EUJzkHRt3u9u2H9C6R+bBJTYymLfz5UUojg6yv81YywWsGz0yImNuXNS9onm5m3reyGNBXqass0d0PnTnLiyqH23Sla9mpYYzCC+NPdsz4QFYYra2CMrr3IpO4FcuVtnP5FcX4Q4LLfKMdocXE6y9x61nTh+wtL87vnfnU5eLCbT6yzwL38If5khMin4cvA/kKjdIThRNdIvUlIEAiOVwiDpCAwyVCNiLoEiFnWjSml6ujXE3PStN5V+oZssp0cqPQK9U0eF83Vt11Gw6ool3nt5yUe+zPvf0rATigMI3prAO/Do0JAKgqgG3CXQmMeEDh+AmM/BZJr/8QCEGGADoEkCFiOkRMhkjoEAkZIqVDpGSIxz0Qgb3BTZs1TufFHyPn+AE=);whiteSpace=wrap;html=1;strokeWidth=2;rotation=90;" vertex="1" parent="1">
          <mxGeometry x="395" y="310" width="80" height="40" as="geometry" />
        </mxCell>
        <mxCell id="wplXm7OtqaTojmRZGg2w-171" value="Priority 0" style="shape=stencil(rZZtb4QgDMc/DW8XpOru7eK27+EUJzkHRt3u9u2H9C6R+bBJTYymLfz5UUojg6yv81YywWsGz0yImNuXNS9onm5m3reyGNBXqass0d0PnTnLiyqH23Sla9mpYYzCC+NPdsz4QFYYra2CMrr3IpO4FcuVtnP5FcX4Q4LLfKMdocXE6y9x61nTh+wtL87vnfnU5eLCbT6yzwL38If5khMin4cvA/kKjdIThRNdIvUlIEAiOVwiDpCAwyVCNiLoEiFnWjSml6ujXE3PStN5V+oZssp0cqPQK9U0eF83Vt11Gw6ool3nt5yUe+zPvf0rATigMI3prAO/Do0JAKgqgG3CXQmMeEDh+AmM/BZJr/8QCEGGADoEkCFiOkRMhkjoEAkZIqVDpGSIxz0Qgb3BTZs1TufFHyPn+AE=);whiteSpace=wrap;html=1;strokeWidth=2;rotation=90;" vertex="1" parent="1">
          <mxGeometry x="395" y="230" width="80" height="40" as="geometry" />
        </mxCell>
        <mxCell id="wplXm7OtqaTojmRZGg2w-172" value="" style="shape=stencil(rZVtD4IgEMc/DW8bgva+WX0PUkyWgRPL+vYhp5vmw5LYnNv9j/vdw/BENNY5KzkiOEf0iAgJsXkZswFz35lMlzypQcvEi6cg67pSN96ItO7Chcx5JerWS08IH8yZ9qFxoqQ0BKGkHnkGfgNjQppY/AIY3kWQ5g12ABYi5y+4UZb4NL6w5Hat1EOms4lL1tY+cfTuu3ryQUWjevB8PWNAIeQAsPdNCBwQkXeESyOhdwT9HxE6IIh3hEsjXwiXcQbeES5XyzfhJ0BSKM0XT9kNM1kUVl3YLjTOVMVX1k4migK250rWTbvJw8ew6RrOD6X3LfZmwybDsSr8iqzwAQ==);whiteSpace=wrap;html=1;strokeWidth=2;rotation=-90;" vertex="1" parent="1">
          <mxGeometry x="325" y="230" width="60" height="40" as="geometry" />
        </mxCell>
        <mxCell id="wplXm7OtqaTojmRZGg2w-173" value="" style="shape=stencil(rZVtD4IgEMc/DW8bgva+WX0PUkyWgRPL+vYhp5vmw5LYnNv9j/vdw/BENNY5KzkiOEf0iAgJsXkZswFz35lMlzypQcvEi6cg67pSN96ItO7Chcx5JerWS08IH8yZ9qFxoqQ0BKGkHnkGfgNjQppY/AIY3kWQ5g12ABYi5y+4UZb4NL6w5Hat1EOms4lL1tY+cfTuu3ryQUWjevB8PWNAIeQAsPdNCBwQkXeESyOhdwT9HxE6IIh3hEsjXwiXcQbeES5XyzfhJ0BSKM0XT9kNM1kUVl3YLjTOVMVX1k4migK250rWTbvJw8ew6RrOD6X3LfZmwybDsSr8iqzwAQ==);whiteSpace=wrap;html=1;strokeWidth=2;rotation=-90;" vertex="1" parent="1">
          <mxGeometry x="595" y="230" width="60" height="40" as="geometry" />
        </mxCell>
        <mxCell id="wplXm7OtqaTojmRZGg2w-174" value="" style="shape=stencil(rZZtb4QgDMc/DW8XpOru7eK27+EUJzkHRt3u9u2H9C6R+bBJTYymLfz5UUojg6yv81YywWsGz0yImNuXNS9onm5m3reyGNBXqass0d0PnTnLiyqH23Sla9mpYYzCC+NPdsz4QFYYra2CMrr3IpO4FcuVtnP5FcX4Q4LLfKMdocXE6y9x61nTh+wtL87vnfnU5eLCbT6yzwL38If5khMin4cvA/kKjdIThRNdIvUlIEAiOVwiDpCAwyVCNiLoEiFnWjSml6ujXE3PStN5V+oZssp0cqPQK9U0eF83Vt11Gw6ool3nt5yUe+zPvf0rATigMI3prAO/Do0JAKgqgG3CXQmMeEDh+AmM/BZJr/8QCEGGADoEkCFiOkRMhkjoEAkZIqVDpGSIxz0Qgb3BTZs1TufFHyPn+AE=);whiteSpace=wrap;html=1;strokeWidth=2;rotation=-90;" vertex="1" parent="1">
          <mxGeometry x="585" y="310" width="80" height="40" as="geometry" />
        </mxCell>
        <mxCell id="wplXm7OtqaTojmRZGg2w-175" value="Trash Can" style="rounded=1;whiteSpace=wrap;html=1;" vertex="1" parent="1">
          <mxGeometry x="455" y="390" width="150" height="40" as="geometry" />
        </mxCell>
        <mxCell id="wplXm7OtqaTojmRZGg2w-177" value="Priority -1" style="shape=stencil(rZZtb4QgDMc/DW8XpOru7eK27+EUJzkHRt3u9u2H9C6R+bBJTYymLfz5UUojg6yv81YywWsGz0yImNuXNS9onm5m3reyGNBXqass0d0PnTnLiyqH23Sla9mpYYzCC+NPdsz4QFYYra2CMrr3IpO4FcuVtnP5FcX4Q4LLfKMdocXE6y9x61nTh+wtL87vnfnU5eLCbT6yzwL38If5khMin4cvA/kKjdIThRNdIvUlIEAiOVwiDpCAwyVCNiLoEiFnWjSml6ujXE3PStN5V+oZssp0cqPQK9U0eF83Vt11Gw6ool3nt5yUe+zPvf0rATigMI3prAO/Do0JAKgqgG3CXQmMeEDh+AmM/BZJr/8QCEGGADoEkCFiOkRMhkjoEAkZIqVDpGSIxz0Qgb3BTZs1TufFHyPn+AE=);whiteSpace=wrap;html=1;strokeWidth=2;rotation=90;" vertex="1" parent="1">
          <mxGeometry x="395" y="390" width="80" height="40" as="geometry" />
        </mxCell>
        <mxCell id="wplXm7OtqaTojmRZGg2w-198" value="&lt;i style=&quot;font-size: 10px;&quot;&gt;Blocking input for sources (e.g. factories) where it&#39;s okay for them to get clogged.&lt;/i&gt;" style="rounded=1;whiteSpace=wrap;html=1;dashed=1;fontSize=10;" vertex="1" parent="1">
          <mxGeometry x="260" y="130" width="135" height="50" as="geometry" />
        </mxCell>
        <mxCell id="wplXm7OtqaTojmRZGg2w-199" value="" style="endArrow=classic;html=1;rounded=0;dashed=1;" edge="1" parent="1" source="wplXm7OtqaTojmRZGg2w-198" target="wplXm7OtqaTojmRZGg2w-143">
          <mxGeometry width="50" height="50" relative="1" as="geometry">
            <mxPoint x="585" y="280" as="sourcePoint" />
            <mxPoint x="155" y="210" as="targetPoint" />
          </mxGeometry>
        </mxCell>
        <mxCell id="wplXm7OtqaTojmRZGg2w-200" value="&lt;i style=&quot;font-size: 10px;&quot;&gt;Backpack acts as a buffer so if items can&#39;t enter the storage drawer the chest won&#39;t get clogged for a while&lt;/i&gt;" style="rounded=1;whiteSpace=wrap;html=1;dashed=1;fontSize=10;" vertex="1" parent="1">
          <mxGeometry x="540" y="-60" width="170" height="40" as="geometry" />
        </mxCell>
        <mxCell id="wplXm7OtqaTojmRZGg2w-201" value="" style="endArrow=classic;html=1;rounded=0;dashed=1;entryX=0.75;entryY=0;entryDx=0;entryDy=0;" edge="1" parent="1" source="wplXm7OtqaTojmRZGg2w-200" target="wplXm7OtqaTojmRZGg2w-149">
          <mxGeometry width="50" height="50" relative="1" as="geometry">
            <mxPoint x="608.5714285714284" y="-10.000000000000227" as="sourcePoint" />
            <mxPoint x="575" y="-46" as="targetPoint" />
          </mxGeometry>
        </mxCell>
        <mxCell id="wplXm7OtqaTojmRZGg2w-202" value="&lt;i style=&quot;font-size: 10px;&quot;&gt;Voiding input for sources (e.g. mob grinder) where it&#39;s NEVER okay for them to get clogged.&lt;br&gt;Always have these ME subnets independently powered.&lt;/i&gt;" style="rounded=1;whiteSpace=wrap;html=1;dashed=1;fontSize=10;" vertex="1" parent="1">
          <mxGeometry x="255" y="350" width="125" height="90" as="geometry" />
        </mxCell>
        <mxCell id="wplXm7OtqaTojmRZGg2w-203" value="" style="ellipse;whiteSpace=wrap;html=1;fillColor=#000000;" vertex="1" parent="1">
          <mxGeometry x="45" y="230" width="10" height="10" as="geometry" />
        </mxCell>
        <mxCell id="wplXm7OtqaTojmRZGg2w-204" value="" style="ellipse;whiteSpace=wrap;html=1;fillColor=#000000;" vertex="1" parent="1">
          <mxGeometry x="65" y="230" width="10" height="10" as="geometry" />
        </mxCell>
        <mxCell id="wplXm7OtqaTojmRZGg2w-205" value="" style="ellipse;whiteSpace=wrap;html=1;fillColor=#000000;" vertex="1" parent="1">
          <mxGeometry x="85" y="230" width="10" height="10" as="geometry" />
        </mxCell>
        <mxCell id="wplXm7OtqaTojmRZGg2w-207" value="" style="endArrow=oval;html=1;rounded=1;strokeWidth=13;curved=0;strokeColor=#0000FF;exitX=0.5;exitY=0;exitDx=0;exitDy=0;exitPerimeter=0;startArrow=oval;startFill=1;endFill=1;entryX=0.5;entryY=1;entryDx=0;entryDy=0;entryPerimeter=0;" edge="1" parent="1" source="wplXm7OtqaTojmRZGg2w-210" target="wplXm7OtqaTojmRZGg2w-220">
          <mxGeometry width="50" height="50" relative="1" as="geometry">
            <mxPoint x="325" y="-55" as="sourcePoint" />
            <mxPoint x="505" y="-104.99999999999977" as="targetPoint" />
          </mxGeometry>
        </mxCell>
        <mxCell id="wplXm7OtqaTojmRZGg2w-209" value="" style="endArrow=oval;html=1;rounded=1;strokeWidth=13;curved=0;strokeColor=#4C0099;exitX=0.5;exitY=1;exitDx=0;exitDy=0;exitPerimeter=0;startArrow=oval;startFill=1;endFill=1;entryX=0.924;entryY=0.042;entryDx=0;entryDy=0;entryPerimeter=0;" edge="1" parent="1" source="wplXm7OtqaTojmRZGg2w-210" target="wplXm7OtqaTojmRZGg2w-91">
          <mxGeometry width="50" height="50" relative="1" as="geometry">
            <mxPoint x="-170" y="260" as="sourcePoint" />
            <mxPoint x="112" y="320" as="targetPoint" />
            <Array as="points">
              <mxPoint x="505" />
              <mxPoint x="190" />
              <mxPoint x="190" y="240" />
              <mxPoint x="120" y="240" />
            </Array>
          </mxGeometry>
        </mxCell>
        <mxCell id="wplXm7OtqaTojmRZGg2w-210" value="9999" style="shape=stencil(rZXRDoIgFIafhtuGnOy+Ub0HKSbLwAmlvX0IumpqS8bm3M7/w3c44EEEVJes5ojgEsEBEQLYvmzY+nA3hEzXPDNeK0THcy9r06grb0VuhulClrwRpnfhiPDejukfoJmS0hKEkvrL+fAtjAlp5+LOw/Am9WmeQ+wjRE7BiGQeAdQqS0sEembZ9dKou8xnE9esL39ijPZNPfh7RQn+v6aRUAn5QUhjE9L1hF1sQkgZ2+gICECQ6IiQQmITAk40CSBkldJ8cZRry0l3OXWhJYEWquE/erUQVeVvrR9ZVzV0hK9w1enNb8roLdbmpk02x6n+F+CEFw==);whiteSpace=wrap;html=1;strokeWidth=2;rotation=0;" vertex="1" parent="1">
          <mxGeometry x="465" y="-70" width="80" height="40" as="geometry" />
        </mxCell>
        <mxCell id="wplXm7OtqaTojmRZGg2w-211" value="" style="ellipse;whiteSpace=wrap;html=1;fillColor=#000000;" vertex="1" parent="1">
          <mxGeometry x="5" y="420" width="10" height="10" as="geometry" />
        </mxCell>
        <mxCell id="wplXm7OtqaTojmRZGg2w-212" value="" style="ellipse;whiteSpace=wrap;html=1;fillColor=#000000;" vertex="1" parent="1">
          <mxGeometry x="25" y="420" width="10" height="10" as="geometry" />
        </mxCell>
        <mxCell id="wplXm7OtqaTojmRZGg2w-213" value="" style="ellipse;whiteSpace=wrap;html=1;fillColor=#000000;" vertex="1" parent="1">
          <mxGeometry x="45" y="420" width="10" height="10" as="geometry" />
        </mxCell>
        <mxCell id="wplXm7OtqaTojmRZGg2w-214" value="" style="endArrow=oval;html=1;rounded=1;strokeWidth=13;curved=0;strokeColor=#0000FF;startArrow=oval;startFill=1;endFill=1;entryX=0.5;entryY=1;entryDx=0;entryDy=0;entryPerimeter=0;exitX=0.5;exitY=1;exitDx=0;exitDy=0;exitPerimeter=0;" edge="1" parent="1" source="wplXm7OtqaTojmRZGg2w-220" target="wplXm7OtqaTojmRZGg2w-219">
          <mxGeometry width="50" height="50" relative="1" as="geometry">
            <mxPoint x="505" y="-150" as="sourcePoint" />
            <mxPoint x="405" y="-150" as="targetPoint" />
            <Array as="points">
              <mxPoint x="505" y="-100" />
              <mxPoint x="405" y="-100" />
            </Array>
          </mxGeometry>
        </mxCell>
        <mxCell id="wplXm7OtqaTojmRZGg2w-215" value="" style="endArrow=oval;html=1;rounded=1;strokeWidth=13;curved=0;strokeColor=#0000FF;exitX=0.5;exitY=1;exitDx=0;exitDy=0;startArrow=oval;startFill=1;endFill=1;entryX=0.5;entryY=1;entryDx=0;entryDy=0;entryPerimeter=0;exitPerimeter=0;" edge="1" parent="1" source="wplXm7OtqaTojmRZGg2w-219" target="wplXm7OtqaTojmRZGg2w-216">
          <mxGeometry width="50" height="50" relative="1" as="geometry">
            <mxPoint x="505" y="-30" as="sourcePoint" />
            <mxPoint x="525" y="-130" as="targetPoint" />
            <Array as="points">
              <mxPoint x="405" y="-100" />
              <mxPoint x="305" y="-100" />
            </Array>
          </mxGeometry>
        </mxCell>
        <mxCell id="wplXm7OtqaTojmRZGg2w-146" value="Dimensional Tank 1" style="rounded=1;whiteSpace=wrap;html=1;" vertex="1" parent="1">
          <mxGeometry x="265" y="-210" width="80" height="40" as="geometry" />
        </mxCell>
        <mxCell id="wplXm7OtqaTojmRZGg2w-147" value="Dimensional Tank 2" style="rounded=1;whiteSpace=wrap;html=1;" vertex="1" parent="1">
          <mxGeometry x="365" y="-210" width="80" height="40" as="geometry" />
        </mxCell>
        <mxCell id="wplXm7OtqaTojmRZGg2w-148" value="Dimensional Tank 3" style="rounded=1;whiteSpace=wrap;html=1;" vertex="1" parent="1">
          <mxGeometry x="465" y="-210" width="80" height="40" as="geometry" />
        </mxCell>
        <mxCell id="wplXm7OtqaTojmRZGg2w-216" value="" style="shape=stencil(rZVtD4IgEMc/DW8bgva+WX0PUkyWgRPL+vYhp5vmw5LYnNv9j/vdw/BENNY5KzkiOEf0iAgJsXkZswFz35lMlzypQcvEi6cg67pSN96ItO7Chcx5JerWS08IH8yZ9qFxoqQ0BKGkHnkGfgNjQppY/AIY3kWQ5g12ABYi5y+4UZb4NL6w5Hat1EOms4lL1tY+cfTuu3ryQUWjevB8PWNAIeQAsPdNCBwQkXeESyOhdwT9HxE6IIh3hEsjXwiXcQbeES5XyzfhJ0BSKM0XT9kNM1kUVl3YLjTOVMVX1k4migK250rWTbvJw8ew6RrOD6X3LfZmwybDsSr8iqzwAQ==);whiteSpace=wrap;html=1;strokeWidth=2;" vertex="1" parent="1">
          <mxGeometry x="275" y="-170" width="60" height="40" as="geometry" />
        </mxCell>
        <mxCell id="wplXm7OtqaTojmRZGg2w-219" value="" style="shape=stencil(rZVtD4IgEMc/DW8bgva+WX0PUkyWgRPL+vYhp5vmw5LYnNv9j/vdw/BENNY5KzkiOEf0iAgJsXkZswFz35lMlzypQcvEi6cg67pSN96ItO7Chcx5JerWS08IH8yZ9qFxoqQ0BKGkHnkGfgNjQppY/AIY3kWQ5g12ABYi5y+4UZb4NL6w5Hat1EOms4lL1tY+cfTuu3ryQUWjevB8PWNAIeQAsPdNCBwQkXeESyOhdwT9HxE6IIh3hEsjXwiXcQbeES5XyzfhJ0BSKM0XT9kNM1kUVl3YLjTOVMVX1k4migK250rWTbvJw8ew6RrOD6X3LfZmwybDsSr8iqzwAQ==);whiteSpace=wrap;html=1;strokeWidth=2;" vertex="1" parent="1">
          <mxGeometry x="375" y="-170" width="60" height="40" as="geometry" />
        </mxCell>
        <mxCell id="wplXm7OtqaTojmRZGg2w-220" value="" style="shape=stencil(rZVtD4IgEMc/DW8bgva+WX0PUkyWgRPL+vYhp5vmw5LYnNv9j/vdw/BENNY5KzkiOEf0iAgJsXkZswFz35lMlzypQcvEi6cg67pSN96ItO7Chcx5JerWS08IH8yZ9qFxoqQ0BKGkHnkGfgNjQppY/AIY3kWQ5g12ABYi5y+4UZb4NL6w5Hat1EOms4lL1tY+cfTuu3ryQUWjevB8PWNAIeQAsPdNCBwQkXeESyOhdwT9HxE6IIh3hEsjXwiXcQbeES5XyzfhJ0BSKM0XT9kNM1kUVl3YLjTOVMVX1k4migK250rWTbvJw8ew6RrOD6X3LfZmwybDsSr8iqzwAQ==);whiteSpace=wrap;html=1;strokeWidth=2;" vertex="1" parent="1">
          <mxGeometry x="475" y="-170" width="60" height="40" as="geometry" />
        </mxCell>
        <mxCell id="wplXm7OtqaTojmRZGg2w-222" value="&lt;i style=&quot;font-size: 10px;&quot;&gt;Fluid Inputs as needed&lt;/i&gt;" style="rounded=1;whiteSpace=wrap;html=1;dashed=1;fontSize=10;" vertex="1" parent="1">
          <mxGeometry x="270" y="-50" width="115" height="20" as="geometry" />
        </mxCell>
        <mxCell id="wplXm7OtqaTojmRZGg2w-230" value="" style="endArrow=oval;html=1;rounded=1;strokeWidth=13;curved=0;strokeColor=#9C9C9C;startArrow=oval;startFill=1;endFill=1;fillColor=#f8cecc;exitX=0.5;exitY=1;exitDx=0;exitDy=0;exitPerimeter=0;" edge="1" parent="1" target="wplXm7OtqaTojmRZGg2w-231" source="wplXm7OtqaTojmRZGg2w-226">
          <mxGeometry width="50" height="50" relative="1" as="geometry">
            <mxPoint x="765" y="-215" as="sourcePoint" />
            <mxPoint x="965" y="-185" as="targetPoint" />
            <Array as="points">
              <mxPoint x="305" y="-270" />
            </Array>
          </mxGeometry>
        </mxCell>
        <mxCell id="wplXm7OtqaTojmRZGg2w-232" value="" style="rounded=0;orthogonalLoop=1;jettySize=auto;html=1;dashed=1;" edge="1" parent="1" source="wplXm7OtqaTojmRZGg2w-233" target="wplXm7OtqaTojmRZGg2w-231">
          <mxGeometry relative="1" as="geometry" />
        </mxCell>
        <mxCell id="wplXm7OtqaTojmRZGg2w-233" value="&lt;i&gt;Subnet to easily see if any of the item/fluid wireless inputs are backing up, to add to storage drawers/fluid partitioned disks&lt;/i&gt;" style="rounded=1;whiteSpace=wrap;html=1;dashed=1;fontSize=10;" vertex="1" parent="1">
          <mxGeometry x="595" y="-215" width="100" height="85" as="geometry" />
        </mxCell>
        <mxCell id="wplXm7OtqaTojmRZGg2w-234" value="" style="endArrow=oval;html=1;rounded=1;strokeWidth=13;curved=0;strokeColor=#9C9C9C;startArrow=oval;startFill=1;endFill=1;fillColor=#f8cecc;exitX=0.5;exitY=1;exitDx=0;exitDy=0;exitPerimeter=0;" edge="1" parent="1" source="wplXm7OtqaTojmRZGg2w-227" target="wplXm7OtqaTojmRZGg2w-231">
          <mxGeometry width="50" height="50" relative="1" as="geometry">
            <mxPoint x="315" y="-190" as="sourcePoint" />
            <mxPoint x="755" y="-283" as="targetPoint" />
            <Array as="points">
              <mxPoint x="405" y="-270" />
            </Array>
          </mxGeometry>
        </mxCell>
        <mxCell id="wplXm7OtqaTojmRZGg2w-235" value="" style="endArrow=oval;html=1;rounded=1;strokeWidth=13;curved=0;strokeColor=#9C9C9C;startArrow=oval;startFill=1;endFill=1;fillColor=#f8cecc;exitX=0.5;exitY=1;exitDx=0;exitDy=0;exitPerimeter=0;" edge="1" parent="1" source="wplXm7OtqaTojmRZGg2w-228" target="wplXm7OtqaTojmRZGg2w-231">
          <mxGeometry width="50" height="50" relative="1" as="geometry">
            <mxPoint x="580" y="-200" as="sourcePoint" />
            <mxPoint x="920" y="-287" as="targetPoint" />
            <Array as="points">
              <mxPoint x="505" y="-270" />
            </Array>
          </mxGeometry>
        </mxCell>
        <mxCell id="wplXm7OtqaTojmRZGg2w-226" value="" style="shape=stencil(rZZtb4QgDMc/DW8XpOru7eK27+EUJzkHRt3u9u2H9C6R+bBJTYymLfz5UUojg6yv81YywWsGz0yImNuXNS9onm5m3reyGNBXqass0d0PnTnLiyqH23Sla9mpYYzCC+NPdsz4QFYYra2CMrr3IpO4FcuVtnP5FcX4Q4LLfKMdocXE6y9x61nTh+wtL87vnfnU5eLCbT6yzwL38If5khMin4cvA/kKjdIThRNdIvUlIEAiOVwiDpCAwyVCNiLoEiFnWjSml6ujXE3PStN5V+oZssp0cqPQK9U0eF83Vt11Gw6ool3nt5yUe+zPvf0rATigMI3prAO/Do0JAKgqgG3CXQmMeEDh+AmM/BZJr/8QCEGGADoEkCFiOkRMhkjoEAkZIqVDpGSIxz0Qgb3BTZs1TufFHyPn+AE=);whiteSpace=wrap;html=1;strokeWidth=2;rotation=-180;" vertex="1" parent="1">
          <mxGeometry x="265" y="-250" width="80" height="40" as="geometry" />
        </mxCell>
        <mxCell id="wplXm7OtqaTojmRZGg2w-227" value="" style="shape=stencil(rZZtb4QgDMc/DW8XpOru7eK27+EUJzkHRt3u9u2H9C6R+bBJTYymLfz5UUojg6yv81YywWsGz0yImNuXNS9onm5m3reyGNBXqass0d0PnTnLiyqH23Sla9mpYYzCC+NPdsz4QFYYra2CMrr3IpO4FcuVtnP5FcX4Q4LLfKMdocXE6y9x61nTh+wtL87vnfnU5eLCbT6yzwL38If5khMin4cvA/kKjdIThRNdIvUlIEAiOVwiDpCAwyVCNiLoEiFnWjSml6ujXE3PStN5V+oZssp0cqPQK9U0eF83Vt11Gw6ool3nt5yUe+zPvf0rATigMI3prAO/Do0JAKgqgG3CXQmMeEDh+AmM/BZJr/8QCEGGADoEkCFiOkRMhkjoEAkZIqVDpGSIxz0Qgb3BTZs1TufFHyPn+AE=);whiteSpace=wrap;html=1;strokeWidth=2;rotation=-180;" vertex="1" parent="1">
          <mxGeometry x="365" y="-250" width="80" height="40" as="geometry" />
        </mxCell>
        <mxCell id="wplXm7OtqaTojmRZGg2w-228" value="" style="shape=stencil(rZZtb4QgDMc/DW8XpOru7eK27+EUJzkHRt3u9u2H9C6R+bBJTYymLfz5UUojg6yv81YywWsGz0yImNuXNS9onm5m3reyGNBXqass0d0PnTnLiyqH23Sla9mpYYzCC+NPdsz4QFYYra2CMrr3IpO4FcuVtnP5FcX4Q4LLfKMdocXE6y9x61nTh+wtL87vnfnU5eLCbT6yzwL38If5khMin4cvA/kKjdIThRNdIvUlIEAiOVwiDpCAwyVCNiLoEiFnWjSml6ujXE3PStN5V+oZssp0cqPQK9U0eF83Vt11Gw6ool3nt5yUe+zPvf0rATigMI3prAO/Do0JAKgqgG3CXQmMeEDh+AmM/BZJr/8QCEGGADoEkCFiOkRMhkjoEAkZIqVDpGSIxz0Qgb3BTZs1TufFHyPn+AE=);whiteSpace=wrap;html=1;strokeWidth=2;rotation=-180;" vertex="1" parent="1">
          <mxGeometry x="465" y="-250" width="80" height="40" as="geometry" />
        </mxCell>
        <mxCell id="wplXm7OtqaTojmRZGg2w-237" value="" style="endArrow=oval;html=1;rounded=1;strokeWidth=13;curved=0;strokeColor=#9C9C9C;startArrow=oval;startFill=1;endFill=1;fillColor=#f8cecc;exitX=0.5;exitY=1;exitDx=0;exitDy=0;exitPerimeter=0;entryX=1;entryY=0.5;entryDx=0;entryDy=0;" edge="1" parent="1" source="wplXm7OtqaTojmRZGg2w-225" target="wplXm7OtqaTojmRZGg2w-231">
          <mxGeometry width="50" height="50" relative="1" as="geometry">
            <mxPoint x="610" y="-130" as="sourcePoint" />
            <mxPoint x="690" y="-50" as="targetPoint" />
            <Array as="points">
              <mxPoint x="720" y="180" />
              <mxPoint x="720" y="-200" />
              <mxPoint x="720" y="-270" />
            </Array>
          </mxGeometry>
        </mxCell>
        <mxCell id="wplXm7OtqaTojmRZGg2w-162" value="" style="shape=stencil(rZZtb4QgDMc/DW8XpOru7eK27+EUJzkHRt3u9u2H9C6R+bBJTYymLfz5UUojg6yv81YywWsGz0yImNuXNS9onm5m3reyGNBXqass0d0PnTnLiyqH23Sla9mpYYzCC+NPdsz4QFYYra2CMrr3IpO4FcuVtnP5FcX4Q4LLfKMdocXE6y9x61nTh+wtL87vnfnU5eLCbT6yzwL38If5khMin4cvA/kKjdIThRNdIvUlIEAiOVwiDpCAwyVCNiLoEiFnWjSml6ujXE3PStN5V+oZssp0cqPQK9U0eF83Vt11Gw6ool3nt5yUe+zPvf0rATigMI3prAO/Do0JAKgqgG3CXQmMeEDh+AmM/BZJr/8QCEGGADoEkCFiOkRMhkjoEAkZIqVDpGSIxz0Qgb3BTZs1TufFHyPn+AE=);whiteSpace=wrap;html=1;strokeWidth=2;rotation=-90;" vertex="1" parent="1">
          <mxGeometry x="585" y="120" width="80" height="40" as="geometry" />
        </mxCell>
        <mxCell id="wplXm7OtqaTojmRZGg2w-225" value="" style="shape=stencil(rZZtb4QgDMc/DW8XpOru7eK27+EUJzkHRt3u9u2H9C6R+bBJTYymLfz5UUojg6yv81YywWsGz0yImNuXNS9onm5m3reyGNBXqass0d0PnTnLiyqH23Sla9mpYYzCC+NPdsz4QFYYra2CMrr3IpO4FcuVtnP5FcX4Q4LLfKMdocXE6y9x61nTh+wtL87vnfnU5eLCbT6yzwL38If5khMin4cvA/kKjdIThRNdIvUlIEAiOVwiDpCAwyVCNiLoEiFnWjSml6ujXE3PStN5V+oZssp0cqPQK9U0eF83Vt11Gw6ool3nt5yUe+zPvf0rATigMI3prAO/Do0JAKgqgG3CXQmMeEDh+AmM/BZJr/8QCEGGADoEkCFiOkRMhkjoEAkZIqVDpGSIxz0Qgb3BTZs1TufFHyPn+AE=);whiteSpace=wrap;html=1;strokeWidth=2;rotation=-180;" vertex="1" parent="1">
          <mxGeometry x="490" y="180" width="80" height="40" as="geometry" />
        </mxCell>
        <mxCell id="wplXm7OtqaTojmRZGg2w-231" value="Terminal" style="shape=process;whiteSpace=wrap;html=1;backgroundOutline=1;" vertex="1" parent="1">
          <mxGeometry x="601.25" y="-290" width="60" height="40" as="geometry" />
        </mxCell>
        <mxCell id="wplXm7OtqaTojmRZGg2w-224" value="" style="shape=stencil(rZZtb4QgDMc/DW8XpOru7eK27+EUJzkHRt3u9u2H9C6R+bBJTYymLfz5UUojg6yv81YywWsGz0yImNuXNS9onm5m3reyGNBXqass0d0PnTnLiyqH23Sla9mpYYzCC+NPdsz4QFYYra2CMrr3IpO4FcuVtnP5FcX4Q4LLfKMdocXE6y9x61nTh+wtL87vnfnU5eLCbT6yzwL38If5khMin4cvA/kKjdIThRNdIvUlIEAiOVwiDpCAwyVCNiLoEiFnWjSml6ujXE3PStN5V+oZssp0cqPQK9U0eF83Vt11Gw6ool3nt5yUe+zPvf0rATigMI3prAO/Do0JAKgqgG3CXQmMeEDh+AmM/BZJr/8QCEGGADoEkCFiOkRMhkjoEAkZIqVDpGSIxz0Qgb3BTZs1TufFHyPn+AE=);whiteSpace=wrap;html=1;strokeWidth=2;rotation=-180;" vertex="1" parent="1">
          <mxGeometry x="490" width="80" height="40" as="geometry" />
        </mxCell>
        <mxCell id="wplXm7OtqaTojmRZGg2w-240" value="" style="endArrow=oval;html=1;rounded=1;strokeWidth=13;curved=0;strokeColor=#b85450;entryX=0.5;entryY=1;entryDx=0;entryDy=0;startArrow=oval;startFill=1;endFill=1;fillColor=#f8cecc;exitX=0.5;exitY=1;exitDx=0;exitDy=0;exitPerimeter=0;" edge="1" parent="1" source="wplXm7OtqaTojmRZGg2w-130" target="wplXm7OtqaTojmRZGg2w-239">
          <mxGeometry width="50" height="50" relative="1" as="geometry">
            <mxPoint x="-260" y="-10" as="sourcePoint" />
            <mxPoint x="-260" y="-40" as="targetPoint" />
            <Array as="points">
              <mxPoint x="-155" y="-20" />
            </Array>
          </mxGeometry>
        </mxCell>
        <mxCell id="wplXm7OtqaTojmRZGg2w-239" value="Disc Manipulator&lt;br&gt;&lt;i&gt;(dumps to drawers)&lt;/i&gt;" style="rounded=1;whiteSpace=wrap;html=1;" vertex="1" parent="1">
          <mxGeometry x="-210" y="-80" width="110" height="30" as="geometry" />
        </mxCell>
        <mxCell id="wplXm7OtqaTojmRZGg2w-242" value="" style="endArrow=oval;html=1;rounded=1;strokeWidth=13;curved=0;strokeColor=#00FF00;entryX=0.5;entryY=1;entryDx=0;entryDy=0;entryPerimeter=0;startArrow=oval;startFill=1;endFill=1;exitX=0.5;exitY=1;exitDx=0;exitDy=0;" edge="1" parent="1" source="wplXm7OtqaTojmRZGg2w-241" target="wplXm7OtqaTojmRZGg2w-111">
          <mxGeometry width="50" height="50" relative="1" as="geometry">
            <mxPoint x="55" y="90" as="sourcePoint" />
            <mxPoint x="-185" y="110" as="targetPoint" />
            <Array as="points">
              <mxPoint x="80" y="90" />
            </Array>
          </mxGeometry>
        </mxCell>
        <mxCell id="wplXm7OtqaTojmRZGg2w-243" value="" style="endArrow=oval;html=1;rounded=1;strokeWidth=13;curved=0;strokeColor=#0000FF;exitX=0.5;exitY=0;exitDx=0;exitDy=0;exitPerimeter=0;startArrow=oval;startFill=1;endFill=1;" edge="1" parent="1" source="wplXm7OtqaTojmRZGg2w-246" target="wplXm7OtqaTojmRZGg2w-244">
          <mxGeometry width="50" height="50" relative="1" as="geometry">
            <mxPoint x="-190" y="230" as="sourcePoint" />
            <mxPoint x="-350" y="280" as="targetPoint" />
          </mxGeometry>
        </mxCell>
        <mxCell id="wplXm7OtqaTojmRZGg2w-244" value="Another Factory&lt;div&gt;&lt;i&gt;(more channels)&lt;/i&gt;&lt;/div&gt;" style="rounded=1;whiteSpace=wrap;html=1;" vertex="1" parent="1">
          <mxGeometry x="-70" y="140" width="120" height="40" as="geometry" />
        </mxCell>
        <mxCell id="wplXm7OtqaTojmRZGg2w-245" value="" style="endArrow=oval;html=1;rounded=1;strokeWidth=13;curved=0;strokeColor=#4C0099;exitX=0.5;exitY=1;exitDx=0;exitDy=0;exitPerimeter=0;startArrow=oval;startFill=1;endFill=1;entryX=0.427;entryY=-0.002;entryDx=0;entryDy=0;entryPerimeter=0;" edge="1" parent="1" source="wplXm7OtqaTojmRZGg2w-246">
          <mxGeometry width="50" height="50" relative="1" as="geometry">
            <mxPoint x="-290" y="260" as="sourcePoint" />
            <mxPoint x="-8" y="320" as="targetPoint" />
          </mxGeometry>
        </mxCell>
        <mxCell id="wplXm7OtqaTojmRZGg2w-246" value="3" style="shape=stencil(rZXRDoIgFIafhtuGnOy+Ub0HKSbLwAmlvX0IumpqS8bm3M7/w3c44EEEVJes5ojgEsEBEQLYvmzY+nA3hEzXPDNeK0THcy9r06grb0VuhulClrwRpnfhiPDejukfoJmS0hKEkvrL+fAtjAlp5+LOw/Am9WmeQ+wjRE7BiGQeAdQqS0sEembZ9dKou8xnE9esL39ijPZNPfh7RQn+v6aRUAn5QUhjE9L1hF1sQkgZ2+gICECQ6IiQQmITAk40CSBkldJ8cZRry0l3OXWhJYEWquE/erUQVeVvrR9ZVzV0hK9w1enNb8roLdbmpk02x6n+F+CEFw==);whiteSpace=wrap;html=1;strokeWidth=2;rotation=0;" vertex="1" parent="1">
          <mxGeometry x="-50" y="215" width="80" height="40" as="geometry" />
        </mxCell>
        <mxCell id="wplXm7OtqaTojmRZGg2w-241" value="Disc Manipulator&lt;br&gt;&lt;i&gt;(dumps to storage)&lt;/i&gt;" style="rounded=1;whiteSpace=wrap;html=1;" vertex="1" parent="1">
          <mxGeometry x="25" y="10" width="110" height="40" as="geometry" />
        </mxCell>
        <mxCell id="wplXm7OtqaTojmRZGg2w-111" value="" style="shape=stencil(rZRhD4IgEIZ/DV8bQfm9Wf0PUkwmgRNL+/chp5umuHJsju3eF547boeIxiZnJUcE54ieESEU28WGDYRRHzJT8qQGLRMtT0E2daUL3oi07o8LlfNK1J1LLwif7J7uo3GilbIEoZWZOCPfwphQ9ixuAYZ3R0jzhngPESLXL7hVfHwa31hS3Cv9VOli4pJ1tc+MwX7oFx9VNKkHL9czBUihRoAoNGEL4hAcQTcgSHDElouEJvwESKQ23LvLzfNsLJ3qmWUaZ7riK0OeCSnhra5k/eslBJihv3q/3JTB897NHZs1x6nw43PCBw==);whiteSpace=wrap;html=1;strokeWidth=2;rotation=-180;" vertex="1" parent="1">
          <mxGeometry x="-310" y="90" width="80" height="40" as="geometry" />
        </mxCell>
        <mxCell id="wplXm7OtqaTojmRZGg2w-249" value="&lt;i style=&quot;font-size: 10px;&quot;&gt;Main centralized&lt;br&gt;storage&lt;/i&gt;" style="rounded=1;whiteSpace=wrap;html=1;dashed=1;fontSize=10;" vertex="1" parent="1">
          <mxGeometry x="-415" y="77" width="85" height="40" as="geometry" />
        </mxCell>
        <mxCell id="wplXm7OtqaTojmRZGg2w-130" value="" style="shape=stencil(rZRhD4IgEIZ/DV8bQfm9Wf0PUkwmgRNL+/chp5umuHJsju3eF547boeIxiZnJUcE54ieESEU28WGDYRRHzJT8qQGLRMtT0E2daUL3oi07o8LlfNK1J1LLwif7J7uo3GilbIEoZWZOCPfwphQ9ixuAYZ3R0jzhngPESLXL7hVfHwa31hS3Cv9VOli4pJ1tc+MwX7oFx9VNKkHL9czBUihRoAoNGEL4hAcQTcgSHDElouEJvwESKQ23LvLzfNsLJ3qmWUaZ7riK0OeCSnhra5k/eslBJihv3q/3JTB897NHZs1x6nw43PCBw==);whiteSpace=wrap;html=1;strokeWidth=2;rotation=-180;" vertex="1" parent="1">
          <mxGeometry x="-310" y="-20" width="80" height="40" as="geometry" />
        </mxCell>
        <mxCell id="wplXm7OtqaTojmRZGg2w-91" value="Controller" style="rounded=1;whiteSpace=wrap;html=1;" vertex="1" parent="1">
          <mxGeometry x="-360" y="320" width="520" height="80" as="geometry" />
        </mxCell>
        <mxCell id="wplXm7OtqaTojmRZGg2w-250" value="&lt;div style=&quot;&quot;&gt;&lt;span style=&quot;font-size: 14px; background-color: initial;&quot;&gt;Cliffnotes&lt;/span&gt;&lt;/div&gt;&lt;div&gt;Fluids/Gasses are input directly into the main network.&lt;/div&gt;&lt;div&gt;Mass item input goes through a dimensional chest for inventory management.&lt;/div&gt;" style="rounded=1;whiteSpace=wrap;html=1;dashed=1;fontSize=10;align=left;" vertex="1" parent="1">
          <mxGeometry x="-689" y="-145" width="209" height="80" as="geometry" />
        </mxCell>
        <mxCell id="wplXm7OtqaTojmRZGg2w-251" value="" style="endArrow=classic;html=1;rounded=0;dashed=1;" edge="1" parent="1" source="wplXm7OtqaTojmRZGg2w-202" target="wplXm7OtqaTojmRZGg2w-164">
          <mxGeometry width="50" height="50" relative="1" as="geometry">
            <mxPoint x="275" y="345" as="sourcePoint" />
            <mxPoint x="258" y="295" as="targetPoint" />
          </mxGeometry>
        </mxCell>
      </root>
    </mxGraphModel>
  </diagram>
</mxfile>
